<svg width="68" height="64" viewBox="0 0 68 64" fill="none" xmlns="http://www.w3.org/2000/svg">
<path d="M26.8096 22.1905C24.571 19.1778 23.3429 14.9065 23.3429 10.172C23.3429 3.2 27.8667 -5.31513e-10 34.0096 0C40.4096 5.53748e-10 44.6763 3.2 44.6763 10.172C44.6763 14.9161 43.3717 19.1906 41.2852 22.1905L35.6026 31.5435C35.0162 32.5087 33.0081 32.5074 32.4245 31.5413L26.8096 22.1905Z" fill="#FF725E"/>
<path d="M38.9205 21.0391C40.4103 17.594 43.4954 14.3948 47.5955 12.0276C53.6335 8.54159 58.6667 10.8593 61.7381 16.1792C64.9381 21.7217 64.3002 27.0168 58.2622 30.5028C54.1538 32.8748 49.7996 33.8823 46.1584 33.5754L35.2171 33.3306C34.088 33.3053 33.0852 31.5655 33.63 30.5771L38.9205 21.0391Z" fill="#FF725E"/>
<path d="M46.111 30.8486C49.8394 30.4163 54.1525 31.4884 58.2526 33.8556C64.2906 37.3417 64.8 42.8593 61.7285 48.1793C58.5286 53.7218 53.6239 55.8169 47.586 52.3308C43.4775 49.9588 40.4279 46.6918 38.8731 43.3849L33.6145 33.7871C33.0718 32.7966 34.0771 31.0582 35.2055 31.0359L46.111 30.8486Z" fill="#FF725E"/>
<path d="M41.1904 41.8095C43.429 44.8222 44.6571 49.0935 44.6571 53.828C44.6571 60.8 40.1333 64 33.9904 64C27.5904 64 23.3237 60.8 23.3237 53.828C23.3237 49.0839 24.6283 44.8094 26.7148 41.8095L32.3974 32.4565C32.9838 31.4913 34.9919 31.4926 35.5755 32.4587L41.1904 41.8095Z" fill="#FF725E"/>
<path d="M21.889 33.6847C18.1606 34.1171 13.8475 33.0449 9.74737 30.6777C3.70941 27.1917 3.19999 21.674 6.27147 16.3541C9.47145 10.8115 14.3761 8.71647 20.414 12.2025C24.5225 14.5745 27.5721 17.8415 29.1269 21.1484L34.3855 30.7462C34.9282 31.7367 33.9229 33.4751 32.7945 33.4975L21.889 33.6847Z" fill="#FF725E"/>
<path d="M29.0795 43.4942C27.5897 46.9393 24.5046 50.1384 20.4045 52.5057C14.3665 55.9917 9.33335 53.674 6.26187 48.3541C3.0619 42.8115 3.69983 37.5165 9.7378 34.0305C13.8462 31.6584 18.2004 30.6509 21.8416 30.9579L32.7829 31.2027C33.912 31.228 34.9148 32.9677 34.37 33.9561L29.0795 43.4942Z" fill="#FF725E"/>
<g style="mix-blend-mode:multiply">
<path d="M29.7089 25.9508C28.373 24.0929 27.6401 21.4589 27.6401 18.5394C27.6401 14.2399 30.3398 12.2666 34.0057 12.2666C37.825 12.2666 40.3713 14.2399 40.3713 18.5394C40.3713 21.4648 39.5928 24.1008 38.3476 25.9508L34.9564 31.7184C34.6064 32.3137 33.408 32.3128 33.0598 31.7171L29.7089 25.9508Z" fill="#FF725E"/>
<path d="M36.9364 25.2408C37.8255 23.1163 39.6666 21.1435 42.1135 19.6837C45.7168 17.534 48.7204 18.9632 50.5534 22.2438C52.4631 25.6617 52.0824 28.927 48.479 31.0767C46.0272 32.5395 43.4288 33.1608 41.2558 32.9715L34.7263 32.8205C34.0525 32.8049 33.454 31.7321 33.7792 31.1226L36.9364 25.2408Z" fill="#FF725E"/>
<path d="M41.2275 31.2899C43.4526 31.0233 46.0265 31.6844 48.4734 33.1442C52.0767 35.2939 52.3807 38.6965 50.5477 41.9771C48.638 45.395 45.7111 46.687 42.1078 44.5372C39.656 43.0745 37.836 41.0598 36.9082 39.0206L33.77 33.1019C33.4461 32.4911 34.046 31.4191 34.7194 31.4053L41.2275 31.2899Z" fill="#FF725E"/>
<path d="M38.291 38.0491C39.627 39.907 40.3599 42.541 40.3599 45.4605C40.3599 49.7599 37.6602 51.7333 33.9943 51.7333C30.1749 51.7333 27.6287 49.7599 27.6287 45.4605C27.6287 42.535 28.4072 39.8991 29.6524 38.0491L33.0436 32.2814C33.3936 31.6862 34.592 31.6871 34.9402 32.2828L38.291 38.0491Z" fill="#FF725E"/>
<path d="M26.7725 33.0389C24.5475 33.3055 21.9735 32.6443 19.5267 31.1845C15.9233 29.0348 15.6193 25.6323 17.4523 22.3516C19.362 18.9337 22.2889 17.6418 25.8922 19.7915C28.3441 21.2542 30.164 23.2689 31.0918 25.3082L34.23 31.2268C34.5539 31.8376 33.954 32.9096 33.2806 32.9234L26.7725 33.0389Z" fill="#FF725E"/>
<path d="M31.0636 39.088C30.1745 41.2124 28.3334 43.1853 25.8865 44.6451C22.2832 46.7948 19.2796 45.3655 17.4466 42.0849C15.5369 38.667 15.9176 35.4017 19.521 33.252C21.9728 31.7893 24.5712 31.168 26.7442 31.3573L33.2737 31.5082C33.9475 31.5238 34.546 32.5967 34.2208 33.2062L31.0636 39.088Z" fill="#FF725E"/>
<g style="mix-blend-mode:multiply">
<ellipse rx="2.40724" ry="2.44702" transform="matrix(0.85878 0.512344 -0.487757 0.87298 33.919 31.9161)" fill="#FF725E"/>
</g>
</g>
</svg>
