<svg width="64" height="64" viewBox="0 0 64 64" fill="none" xmlns="http://www.w3.org/2000/svg">
<ellipse cx="32" cy="32" rx="32" ry="32" fill="#FF725E"/>
<g style="mix-blend-mode:multiply">
<path d="M32 13.8666L33.3879 28.6494L44.8222 19.1778L35.3506 30.6121L50.1333 32L35.3506 33.3878L44.8222 44.8222L33.3879 35.3506L32 50.1333L30.6121 35.3506L19.1778 44.8222L28.6494 33.3878L13.8667 32L28.6494 30.6121L19.1778 19.1778L30.6121 28.6494L32 13.8666Z" fill="#FF725E"/>
<ellipse rx="7.46667" ry="7.46666" transform="matrix(-1 0 0 1 32 32)" fill="#FF725E"/>
<g style="mix-blend-mode:multiply">
<path d="M35.8132 27.0559C35.061 27.808 35.017 28.9834 35.017 28.9834C35.017 28.9834 36.1924 28.9394 36.9445 28.1873C37.6967 27.4351 39.9196 24.0808 39.9196 24.0808C39.9196 24.0808 36.5653 26.3038 35.8132 27.0559Z" fill="#FF725E"/>
</g>
<g style="mix-blend-mode:multiply">
<path d="M37.4151 28.8915C36.4324 29.2986 35.9419 30.3677 35.9419 30.3677C35.9419 30.3677 37.0447 30.7768 38.0274 30.3697C39.0101 29.9627 42.3475 27.7144 42.3475 27.7144C42.3475 27.7144 38.3978 28.4845 37.4151 28.8915Z" fill="#FF725E"/>
</g>
<g style="mix-blend-mode:multiply">
<path d="M38.1926 31.2004C37.1289 31.2004 36.2667 32.0004 36.2667 32.0004C36.2667 32.0004 37.1289 32.8004 38.1926 32.8004C39.2563 32.8004 43.2 32.0004 43.2 32.0004C43.2 32.0004 39.2563 31.2004 38.1926 31.2004Z" fill="#FF725E"/>
</g>
<g style="mix-blend-mode:multiply">
<path d="M38.0274 33.6311C37.0447 33.224 35.9419 33.6331 35.9419 33.6331C35.9419 33.6331 36.4324 34.7022 37.4151 35.1093C38.3978 35.5163 42.3475 36.2864 42.3475 36.2864C42.3475 36.2864 39.0101 34.0381 38.0274 33.6311Z" fill="#FF725E"/>
</g>
<g style="mix-blend-mode:multiply">
<path d="M36.9445 35.8135C36.1924 35.0614 35.017 35.0174 35.017 35.0174C35.017 35.0174 35.061 36.1928 35.8131 36.9449C36.5653 37.697 39.9196 39.92 39.9196 39.92C39.9196 39.92 37.6966 36.5656 36.9445 35.8135Z" fill="#FF725E"/>
</g>
<g style="mix-blend-mode:multiply">
<path d="M35.1089 37.4153C34.7019 36.4326 33.6328 35.9422 33.6328 35.9422C33.6328 35.9422 33.2237 37.0449 33.6307 38.0276C34.0377 39.0103 36.2861 42.3477 36.2861 42.3477C36.2861 42.3477 35.516 38.398 35.1089 37.4153Z" fill="#FF725E"/>
</g>
<g style="mix-blend-mode:multiply">
<path d="M32.8 38.1929C32.8 37.1292 32 36.2669 32 36.2669C32 36.2669 31.2 37.1292 31.2 38.1929C31.2 39.2565 32 43.2003 32 43.2003C32 43.2003 32.8 39.2565 32.8 38.1929Z" fill="#FF725E"/>
</g>
<g style="mix-blend-mode:multiply">
<path d="M30.3693 38.0276C30.7763 37.0449 30.3672 35.9421 30.3672 35.9421C30.3672 35.9421 29.2981 36.4326 28.8911 37.4153C28.484 38.398 27.7139 42.3477 27.7139 42.3477C27.7139 42.3477 29.9622 39.0102 30.3693 38.0276Z" fill="#FF725E"/>
</g>
<g style="mix-blend-mode:multiply">
<path d="M28.1869 36.9447C28.939 36.1926 28.983 35.0172 28.983 35.0172C28.983 35.0172 27.8076 35.0612 27.0555 35.8134C26.3034 36.5655 24.0804 39.9198 24.0804 39.9198C24.0804 39.9198 27.4347 37.6968 28.1869 36.9447Z" fill="#FF725E"/>
</g>
<g style="mix-blend-mode:multiply">
<path d="M26.5849 35.1091C27.5676 34.702 28.0581 33.633 28.0581 33.633C28.0581 33.633 26.9553 33.2238 25.9726 33.6309C24.99 34.0379 21.6526 36.2862 21.6526 36.2862C21.6526 36.2862 25.6022 35.5161 26.5849 35.1091Z" fill="#FF725E"/>
</g>
<g style="mix-blend-mode:multiply">
<path d="M25.8074 32.8001C26.8711 32.8001 27.7333 32.0001 27.7333 32.0001C27.7333 32.0001 26.8711 31.2001 25.8074 31.2001C24.7438 31.2001 20.8 32.0001 20.8 32.0001C20.8 32.0001 24.7438 32.8001 25.8074 32.8001Z" fill="#FF725E"/>
</g>
<g style="mix-blend-mode:multiply">
<path d="M25.9727 30.3694C26.9554 30.7765 28.0581 30.3673 28.0581 30.3673C28.0581 30.3673 27.5676 29.2983 26.585 28.8912C25.6023 28.4842 21.6526 27.7141 21.6526 27.7141C21.6526 27.7141 24.99 29.9624 25.9727 30.3694Z" fill="#FF725E"/>
</g>
<g style="mix-blend-mode:multiply">
<path d="M27.0555 28.187C27.8076 28.9391 28.983 28.9831 28.983 28.9831C28.983 28.9831 28.939 27.8077 28.1869 27.0556C27.4348 26.3035 24.0804 24.0805 24.0804 24.0805C24.0804 24.0805 26.3034 27.4349 27.0555 28.187Z" fill="#FF725E"/>
</g>
<g style="mix-blend-mode:multiply">
<path d="M28.8911 26.585C29.2982 27.5677 30.3672 28.0582 30.3672 28.0582C30.3672 28.0582 30.7764 26.9554 30.3693 25.9727C29.9623 24.99 27.714 21.6526 27.714 21.6526C27.714 21.6526 28.4841 25.6023 28.8911 26.585Z" fill="#FF725E"/>
</g>
<g style="mix-blend-mode:multiply">
<path d="M31.2 25.8074C31.2 26.8711 32 27.7333 32 27.7333C32 27.7333 32.8 26.8711 32.8 25.8074C32.8 24.7437 32 20.8 32 20.8C32 20.8 31.2 24.7437 31.2 25.8074Z" fill="#FF725E"/>
</g>
<g style="mix-blend-mode:multiply">
<path d="M33.6307 25.9731C33.2237 26.9557 33.6328 28.0585 33.6328 28.0585C33.6328 28.0585 34.7019 27.568 35.1089 26.5853C35.516 25.6027 36.2861 21.653 36.2861 21.653C36.2861 21.653 34.0378 24.9904 33.6307 25.9731Z" fill="#FF725E"/>
</g>
</g>
</svg>
