<svg width="65" height="65" viewBox="0 0 65 65" fill="none" xmlns="http://www.w3.org/2000/svg">
<path d="M31.7568 0.708757C22.2851 0.671611 24.6823 15.5598 27.065 23.0085C21.3841 17.9537 11.9969 7.52362 4.7281 16.0285C0.49269 22.5761 16.9552 29.0954 25.7159 31.5366C1.24003 33.2786 1.66262 42.9295 4.9334 47.5373C12.5294 56.2317 23.6911 44.657 28.3225 37.7828C24.3394 47.0664 18.6859 63.017 30.5191 64.7044C41.7023 64.42 39.6854 47.5641 37.1958 39.4586C43.6427 44.8446 57.5451 50.041 61.8502 42.5091C66.101 32.0232 50.0526 31.7414 41.497 32.9113C49.0698 30.753 61.2684 23.1426 58.0066 16.2375C53.9275 7.6021 40.3494 18.0281 34.6252 24.0227C37.6156 16.2669 41.2285 0.745902 31.7568 0.708757Z" fill="white"/>
<path fill-rule="evenodd" clip-rule="evenodd" d="M32.6287 5.40325C32.7566 5.53192 32.7558 5.73973 32.6268 5.8674C32.491 6.00188 32.3398 6.29194 32.1973 6.7721C32.0588 7.23928 31.9411 7.84101 31.8434 8.55058C31.6479 9.96863 31.5364 11.7821 31.4836 13.7369C31.3781 17.6444 31.5083 22.083 31.6611 24.9772C31.6706 25.1582 31.5313 25.3127 31.3499 25.3222C31.1685 25.3318 31.0138 25.1928 31.0042 25.0118C30.8508 22.1065 30.7199 17.6496 30.826 13.7192C30.8791 11.7551 30.9915 9.91404 31.1917 8.46114C31.2918 7.73524 31.4149 7.09739 31.5666 6.58578C31.7145 6.08717 31.9032 5.65923 32.1636 5.40142C32.2925 5.27376 32.5007 5.27457 32.6287 5.40325ZM17.1279 21.169C20.1013 22.7363 22.7615 24.6979 24.3072 26.0306C24.4446 26.1491 24.4598 26.3563 24.3411 26.4935C24.2223 26.6307 24.0146 26.6458 23.8772 26.5273C22.3636 25.2223 19.7441 23.2903 16.8207 21.7494C13.886 20.2025 10.7003 19.0794 8.03528 19.3221C7.85439 19.3386 7.69437 19.2056 7.67786 19.0251C7.66135 18.8446 7.7946 18.6849 7.97548 18.6684C10.8377 18.4077 14.1658 19.6076 17.1279 21.169ZM54.6959 19.0955C54.7411 19.2711 54.6351 19.45 54.4592 19.495C51.4832 20.2573 47.9763 22.1343 44.7858 24.19C41.6011 26.2418 38.7595 28.4533 37.12 29.8601C36.9823 29.9783 36.7746 29.9627 36.6562 29.8252C36.5378 29.6878 36.5534 29.4806 36.6911 29.3624C38.3515 27.9377 41.2171 25.7079 44.429 23.6385C47.6349 21.5729 51.2141 19.6486 54.2956 18.8592C54.4716 18.8142 54.6508 18.92 54.6959 19.0955ZM24.3709 35.3733C24.4236 35.5468 24.3254 35.73 24.1516 35.7827C22.0284 36.4255 18.6729 37.6846 15.5228 39.367C12.3573 41.0577 9.46449 43.1423 8.18928 45.412C8.10045 45.5701 7.9 45.6264 7.74157 45.5378C7.58313 45.4491 7.52671 45.2491 7.61554 45.091C8.9899 42.6448 12.0336 40.4861 15.2125 38.7883C18.4067 37.0822 21.8033 35.8077 23.9607 35.1545C24.1345 35.1019 24.3181 35.1999 24.3709 35.3733ZM39.2047 36.7159C39.2746 36.5485 39.4671 36.4694 39.6348 36.539C41.4739 37.3032 44.6694 38.3426 48.2541 38.9651C51.8431 39.5883 55.7898 39.7877 59.1479 38.8996C59.3235 38.8532 59.5035 38.9575 59.5501 39.1328C59.5966 39.308 59.492 39.4877 59.3164 39.5341C55.8265 40.4571 51.772 40.2422 48.1414 39.6118C44.5065 38.9806 41.2641 37.9271 39.3819 37.145C39.2143 37.0753 39.1349 36.8832 39.2047 36.7159ZM32.229 40.7532C32.41 40.7382 32.5689 40.8725 32.5839 41.0531C32.7943 43.5822 32.9438 47.6031 32.7083 51.4557C32.5906 53.382 32.3763 55.2737 32.0227 56.9194C31.6706 58.5576 31.174 59.9847 30.4726 60.9565C30.3665 61.1036 30.1609 61.137 30.0135 61.031C29.8662 60.9251 29.8327 60.72 29.9389 60.5729C30.5602 59.7119 31.0336 58.3913 31.3795 56.7817C31.7238 55.1795 31.9352 53.3231 32.0518 51.4157C32.2849 47.6011 32.1368 43.6125 31.9284 41.1074C31.9134 40.9268 32.048 40.7682 32.229 40.7532Z" fill="#CDCDCD"/>
<ellipse cx="31.998" cy="31.2331" rx="3.61771" ry="3.61026" transform="rotate(0.224698 31.998 31.2331)" fill="#CDCDCD"/>
<ellipse cx="31.998" cy="31.233" rx="1.64441" ry="1.64103" transform="rotate(0.224698 31.998 31.233)" fill="#9B9B9B"/>
<g style="mix-blend-mode:multiply">
<path d="M31.7568 0.708757C22.2851 0.671611 24.6823 15.5598 27.065 23.0085C21.3841 17.9537 11.9969 7.52362 4.7281 16.0285C0.49269 22.5761 16.9552 29.0954 25.7159 31.5366C1.24003 33.2786 1.66262 42.9295 4.9334 47.5373C12.5294 56.2317 23.6911 44.657 28.3225 37.7828C24.3394 47.0664 18.6859 63.017 30.5191 64.7044C41.7023 64.42 39.6854 47.5641 37.1958 39.4586C43.6427 44.8446 57.5451 50.041 61.8502 42.5091C66.101 32.0232 50.0526 31.7414 41.497 32.9113C49.0698 30.753 61.2684 23.1426 58.0066 16.2375C53.9275 7.6021 40.3494 18.0281 34.6252 24.0227C37.6156 16.2669 41.2285 0.745902 31.7568 0.708757Z" fill="#FF725E"/>
<path fill-rule="evenodd" clip-rule="evenodd" d="M32.6287 5.40325C32.7566 5.53192 32.7558 5.73973 32.6268 5.8674C32.491 6.00188 32.3398 6.29194 32.1973 6.7721C32.0588 7.23928 31.9411 7.84101 31.8434 8.55058C31.6479 9.96863 31.5364 11.7821 31.4836 13.7369C31.3781 17.6444 31.5083 22.083 31.6611 24.9772C31.6706 25.1582 31.5313 25.3127 31.3499 25.3222C31.1685 25.3318 31.0138 25.1928 31.0042 25.0118C30.8508 22.1065 30.7199 17.6496 30.826 13.7192C30.8791 11.7551 30.9915 9.91404 31.1917 8.46114C31.2918 7.73524 31.4149 7.09739 31.5666 6.58578C31.7145 6.08717 31.9032 5.65923 32.1636 5.40142C32.2925 5.27376 32.5007 5.27457 32.6287 5.40325ZM17.1279 21.169C20.1013 22.7363 22.7615 24.6979 24.3072 26.0306C24.4446 26.1491 24.4598 26.3563 24.3411 26.4935C24.2223 26.6307 24.0146 26.6458 23.8772 26.5273C22.3636 25.2223 19.7441 23.2903 16.8207 21.7494C13.886 20.2025 10.7003 19.0794 8.03528 19.3221C7.85439 19.3386 7.69437 19.2056 7.67786 19.0251C7.66135 18.8446 7.7946 18.6849 7.97548 18.6684C10.8377 18.4077 14.1658 19.6076 17.1279 21.169ZM54.6959 19.0955C54.7411 19.2711 54.6351 19.45 54.4592 19.495C51.4832 20.2573 47.9763 22.1343 44.7858 24.19C41.6011 26.2418 38.7595 28.4533 37.12 29.8601C36.9823 29.9783 36.7746 29.9627 36.6562 29.8252C36.5378 29.6878 36.5534 29.4806 36.6911 29.3624C38.3515 27.9377 41.2171 25.7079 44.429 23.6385C47.6349 21.5729 51.2141 19.6486 54.2956 18.8592C54.4716 18.8142 54.6508 18.92 54.6959 19.0955ZM24.3709 35.3733C24.4236 35.5468 24.3254 35.73 24.1516 35.7827C22.0284 36.4255 18.6729 37.6846 15.5228 39.367C12.3573 41.0577 9.46449 43.1423 8.18928 45.412C8.10045 45.5701 7.9 45.6264 7.74157 45.5378C7.58313 45.4491 7.52671 45.2491 7.61554 45.091C8.9899 42.6448 12.0336 40.4861 15.2125 38.7883C18.4067 37.0822 21.8033 35.8077 23.9607 35.1545C24.1345 35.1019 24.3181 35.1999 24.3709 35.3733ZM39.2047 36.7159C39.2746 36.5485 39.4671 36.4694 39.6348 36.539C41.4739 37.3032 44.6694 38.3426 48.2541 38.9651C51.8431 39.5883 55.7898 39.7877 59.1479 38.8996C59.3235 38.8532 59.5035 38.9575 59.5501 39.1328C59.5966 39.308 59.492 39.4877 59.3164 39.5341C55.8265 40.4571 51.772 40.2422 48.1414 39.6118C44.5065 38.9806 41.2641 37.9271 39.3819 37.145C39.2143 37.0753 39.1349 36.8832 39.2047 36.7159ZM32.229 40.7532C32.41 40.7382 32.5689 40.8725 32.5839 41.0531C32.7943 43.5822 32.9438 47.6031 32.7083 51.4557C32.5906 53.382 32.3763 55.2737 32.0227 56.9194C31.6706 58.5576 31.174 59.9847 30.4726 60.9565C30.3665 61.1036 30.1609 61.137 30.0135 61.031C29.8662 60.9251 29.8327 60.72 29.9389 60.5729C30.5602 59.7119 31.0336 58.3913 31.3795 56.7817C31.7238 55.1795 31.9352 53.3231 32.0518 51.4157C32.2849 47.6011 32.1368 43.6125 31.9284 41.1074C31.9134 40.9268 32.048 40.7682 32.229 40.7532Z" fill="#FF725E"/>
<ellipse cx="31.998" cy="31.2331" rx="3.61771" ry="3.61026" transform="rotate(0.224698 31.998 31.2331)" fill="#FF725E"/>
<ellipse cx="31.998" cy="31.233" rx="1.64441" ry="1.64103" transform="rotate(0.224698 31.998 31.233)" fill="#FF725E"/>
</g>
<g style="mix-blend-mode:soft-light">
<path d="M31.7568 0.708757C22.2851 0.671611 24.6823 15.5598 27.065 23.0085C21.3841 17.9537 11.9969 7.52362 4.7281 16.0285C0.49269 22.5761 16.9552 29.0954 25.7159 31.5366C1.24003 33.2786 1.66262 42.9295 4.9334 47.5373C12.5294 56.2317 23.6911 44.657 28.3225 37.7828C24.3394 47.0664 18.6859 63.017 30.5191 64.7044C41.7023 64.42 39.6854 47.5641 37.1958 39.4586C43.6427 44.8446 57.5451 50.041 61.8502 42.5091C66.101 32.0232 50.0526 31.7414 41.497 32.9113C49.0698 30.753 61.2684 23.1426 58.0066 16.2375C53.9275 7.6021 40.3494 18.0281 34.6252 24.0227C37.6156 16.2669 41.2285 0.745902 31.7568 0.708757Z" fill="#FF725E"/>
<path fill-rule="evenodd" clip-rule="evenodd" d="M32.6287 5.40325C32.7566 5.53192 32.7558 5.73973 32.6268 5.8674C32.491 6.00188 32.3398 6.29194 32.1973 6.7721C32.0588 7.23928 31.9411 7.84101 31.8434 8.55058C31.6479 9.96863 31.5364 11.7821 31.4836 13.7369C31.3781 17.6444 31.5083 22.083 31.6611 24.9772C31.6706 25.1582 31.5313 25.3127 31.3499 25.3222C31.1685 25.3318 31.0138 25.1928 31.0042 25.0118C30.8508 22.1065 30.7199 17.6496 30.826 13.7192C30.8791 11.7551 30.9915 9.91404 31.1917 8.46114C31.2918 7.73524 31.4149 7.09739 31.5666 6.58578C31.7145 6.08717 31.9032 5.65923 32.1636 5.40142C32.2925 5.27376 32.5007 5.27457 32.6287 5.40325ZM17.1279 21.169C20.1013 22.7363 22.7615 24.6979 24.3072 26.0306C24.4446 26.1491 24.4598 26.3563 24.3411 26.4935C24.2223 26.6307 24.0146 26.6458 23.8772 26.5273C22.3636 25.2223 19.7441 23.2903 16.8207 21.7494C13.886 20.2025 10.7003 19.0794 8.03528 19.3221C7.85439 19.3386 7.69437 19.2056 7.67786 19.0251C7.66135 18.8446 7.7946 18.6849 7.97548 18.6684C10.8377 18.4077 14.1658 19.6076 17.1279 21.169ZM54.6959 19.0955C54.7411 19.2711 54.6351 19.45 54.4592 19.495C51.4832 20.2573 47.9763 22.1343 44.7858 24.19C41.6011 26.2418 38.7595 28.4533 37.12 29.8601C36.9823 29.9783 36.7746 29.9627 36.6562 29.8252C36.5378 29.6878 36.5534 29.4806 36.6911 29.3624C38.3515 27.9377 41.2171 25.7079 44.429 23.6385C47.6349 21.5729 51.2141 19.6486 54.2956 18.8592C54.4716 18.8142 54.6508 18.92 54.6959 19.0955ZM24.3709 35.3733C24.4236 35.5468 24.3254 35.73 24.1516 35.7827C22.0284 36.4255 18.6729 37.6846 15.5228 39.367C12.3573 41.0577 9.46449 43.1423 8.18928 45.412C8.10045 45.5701 7.9 45.6264 7.74157 45.5378C7.58313 45.4491 7.52671 45.2491 7.61554 45.091C8.9899 42.6448 12.0336 40.4861 15.2125 38.7883C18.4067 37.0822 21.8033 35.8077 23.9607 35.1545C24.1345 35.1019 24.3181 35.1999 24.3709 35.3733ZM39.2047 36.7159C39.2746 36.5485 39.4671 36.4694 39.6348 36.539C41.4739 37.3032 44.6694 38.3426 48.2541 38.9651C51.8431 39.5883 55.7898 39.7877 59.1479 38.8996C59.3235 38.8532 59.5035 38.9575 59.5501 39.1328C59.5966 39.308 59.492 39.4877 59.3164 39.5341C55.8265 40.4571 51.772 40.2422 48.1414 39.6118C44.5065 38.9806 41.2641 37.9271 39.3819 37.145C39.2143 37.0753 39.1349 36.8832 39.2047 36.7159ZM32.229 40.7532C32.41 40.7382 32.5689 40.8725 32.5839 41.0531C32.7943 43.5822 32.9438 47.6031 32.7083 51.4557C32.5906 53.382 32.3763 55.2737 32.0227 56.9194C31.6706 58.5576 31.174 59.9847 30.4726 60.9565C30.3665 61.1036 30.1609 61.137 30.0135 61.031C29.8662 60.9251 29.8327 60.72 29.9389 60.5729C30.5602 59.7119 31.0336 58.3913 31.3795 56.7817C31.7238 55.1795 31.9352 53.3231 32.0518 51.4157C32.2849 47.6011 32.1368 43.6125 31.9284 41.1074C31.9134 40.9268 32.048 40.7682 32.229 40.7532Z" fill="#FF725E"/>
<ellipse cx="31.998" cy="31.2331" rx="3.61771" ry="3.61026" transform="rotate(0.224698 31.998 31.2331)" fill="#FF725E"/>
<ellipse cx="31.998" cy="31.233" rx="1.64441" ry="1.64103" transform="rotate(0.224698 31.998 31.233)" fill="#FF725E"/>
</g>
</svg>
